# AST/ASF file generated using VICON BodyLanguage
# -----------------------------------------------
:version 1.10
:name VICON
:units
  mass 1.0
  length 0.45
  angle deg
:documentation
   .ast/.asf automatically generated from VICON data using
   VICON BodyBuilder and BodyLanguage model FoxedUp or BRILLIANT.MOD
:root
   order TX TY TZ RX RY RZ
   axis XYZ
   position 0 0 0  
   orientation 0 -0 0 
:bonedata
  begin
     id 1 
     name lhipjoint
     direction 0.432694 -0.693742 0.575759 
     length 2.19277 
     axis 0 -0 0  XYZ
  end
  begin
     id 2 
     name lfemur
     direction 0.34202 -0.939693 0  
     length 6.69022  
     axis 0 -0 20  XYZ
    dof rx ry rz
    limits (-160.0 20.0)
           (-70.0 70.0)
           (-60.0 70.0)
  end
  begin
     id 3 
     name ltibia
     direction 0.34202 -0.939693 0   
     length 6.50337   
     axis 0 -0 20   XYZ
    dof rx
    limits (-10.0 170.0)
  end
  begin
     id 4 
     name lfoot
     direction 0.158999 -0.435969 0.885805   
     length 2.70564   
     axis -90 -1.13533e-015 20   XYZ
    dof rx rz
    limits (-45.0 90.0)
           (-70.0 20.0)
  end
  begin
     id 5 
     name ltoes
     direction -0.00592919 0.00964381 0.999936   
     length 1.29929   
     axis -90 -1.13533e-015 20   XYZ
    dof rx
    limits (-90.0 20.0)
  end
  begin
     id 6 
     name rhipjoint
     direction -0.414359 -0.700339 0.581234   
     length 2.17212  
     axis 0 -0 0  XYZ 
  end
  begin
     id 7 
     name rfemur
     direction -0.34202 -0.939693 0   
     length 7.17659   
     axis 0 -0 -20   XYZ
    dof rx ry rz
    limits (-160.0 20.0)
           (-70.0 70.0)
           (-70.0 60.0)
  end
  begin
     id 8 
     name rtibia
     direction -0.34202 -0.939693 0   
     length 6.36669   
     axis 0 -0 -20   XYZ
    dof rx
    limits (-10.0 170.0)
 end
 begin
     id 9 
     name rfoot
     direction -0.137064 -0.37658 0.916188   
     length 2.22351  
     axis -90 1.13533e-015 -20   XYZ
    dof rx rz
    limits (-45.0 90.0)
           (-20.0 70.0)
  end
  begin
     id 10 
     name rtoes
     direction -0.000784077 -0.00289101 0.999996   
     length 1.09522   
     axis -90 1.13533e-015 -20   XYZ
    dof rx
    limits (-90.0 20.0)
  end
  begin
     id 11 
     name lowerback
     direction -0.0176242 0.984912 -0.172157   
     length 1.65301   
     axis 0 -0 0   XYZ
    dof rx ry rz
    limits (-20.0 45.0)
           (-30.0 30.0)
           (-30.0 30.0)
  end
  begin
     id 12 
     name upperback
     direction -0.00218128 0.998776 -0.0494072   
     length 1.67776   
     axis 0 -0 0   XYZ
    dof rx ry rz
    limits (-20.0 45.0)
           (-30.0 30.0)
           (-30.0 30.0)
  end
  begin
     id 13 
     name thorax
     direction 0.00544186 0.999658 0.0255711   
     length 1.72293   
     axis 0 -0 0   XYZ
    dof rx ry rz
    limits (-20.0 45.0)
           (-30.0 30.0)
           (-30.0 30.0)
  end
  begin
     id 14 
     name lowerneck
     direction -0.105325 0.983841 0.144785   
     length 2.14226   
     axis 0 -0 0   XYZ
    dof rx ry rz
    limits (-20.0 45.0)
           (-30.0 30.0)
           (-30.0 30.0)
  end
  begin
     id 15 
     name upperneck
     direction 0.0547957 0.988053 -0.144041   
     length 2.17508   
     axis 0 -0 0   XYZ
    dof rx ry rz
    limits (-20.0 45.0)
           (-30.0 30.0)
           (-30.0 30.0)
  end
  begin
     id 16
     name head
     direction 0.0247488 0.997534 -0.0656813  
     length 2.20048  
     axis 0 -0 0   XYZ
    dof rx ry rz
    limits (-20.0 45.0)
           (-30.0 30.0)
           (-30.0 30.0)
  end
  begin
     id 17 
     name lclavicle
     direction 0.820559 0.567247 -0.0701026  
     length 4.09615  
     axis 0 -0 0   XYZ
    dof ry rz
    limits (-20.0 10.0)
           (0.0 20.0)
  end
  begin
     id 18 
     name lhumerus
     direction 0.999977 -0.0067566 -9.96392e-005   
     length 4.59333   
     axis -180 -30 -90   XYZ
    dof rx ry rz
    limits (-60.0 90.0)
           (-90.0 90.0)
           (-90.0 90.0)
  end
  begin
     id 19
     name lradius
     direction 1 -4.48982e-011 -2.53425e-027   
     length 2.81151   
     axis -180 -30 -90   XYZ
    dof rx
    limits (-10.0 170.0)
  end
  begin
     id 20
     name lwrist
     direction 1 -4.48939e-011 -7.39254e-028   
     length 1.40576   
     axis 2.56395e-016 90 90   XYZ
    dof ry
    limits (-180.0 0.0)
 end
  begin
     id 21 
     name lhand
     direction 1 -4.48939e-011 -1.47851e-027   
     length 0.895651   
     axis 9.43423e-016 90 90   XYZ
    dof rx rz
    limits (-90.0 90.0)
           (-45.0 45.0)
  end
  begin
     id 22 
     name lfingers
     direction 1 -4.48978e-011 -2.95702e-027   
     length 0.722097   
     axis 1.88685e-015 90 90   XYZ
    dof rx
    limits (0.0 90.0)
  end
  begin
     id 23
     name lthumb
     direction 0.707107 -6.34931e-011 0.707107   
     length 1.03679   
     axis -90 45 -9.86935e-015   XYZ
    dof rx rz
    limits (-45.0 45.0)
           (-45.0 45.0)
  end
  begin
     id 24 
     name rclavicle
     direction -0.831414 0.553102 -0.0531864   
     length 4.24872  
     axis 0 -0 0   XYZ 
    dof ry rz
    limits (-10.0 20.0)
           (-20.0 0.0)
  end
  begin
     id 25 
     name rhumerus
     direction -0.999916 -0.000939607 0.0129331  
     length 4.74834   
     axis -180 30 90   XYZ
    dof rx ry rz
    limits (-90.0 60.0)
           (-90.0 90.0)
           (-90.0 90.0)
  end
  begin
     id 26 
     name rradius
     direction -1 -4.48956e-011 -1.31752e-027   
     length 2.79907   
     axis -180 30 90   XYZ
    dof rx
    limits (-10.0 170.0)
  end
  begin
     id 27 
     name rwrist
     direction -1 -4.4897e-011 -7.39254e-028   
     length 1.39954   
     axis 2.56395e-016 -90 -90   XYZ
    dof ry
    limits (-180.0 0.0)
  end
  begin
     id 28
     name rhand
     direction -0.999997 -0.00250697 0.000800838   
     length 0.953304   
     axis 9.43423e-016 -90 -90   XYZ
    dof rx rz
    limits (-90.0 90.0)
           (-45.0 45.0)
  end
  begin
     id 29
     name rfingers
     direction -1 -4.48954e-011 -2.95702e-027   
     length 0.763342   
     axis 1.88685e-015 -90 -90   XYZ
    dof rx
    limits (0.0 90.0)
  end
  begin
     id 30
     name rthumb
     direction -0.709701 -0.00217037 0.7045   
     length 1.10115   
     axis -90 -45 9.86935e-015   XYZ
    dof rx rz
    limits (-45.0 45.0)
           (-45.0 45.0)
  end
:hierarchy
  begin
    root lhipjoint rhipjoint lowerback
    lhipjoint lfemur
    lfemur ltibia
    ltibia lfoot
    lfoot ltoes
    rhipjoint rfemur
    rfemur rtibia
    rtibia rfoot
    rfoot rtoes
    lowerback upperback
    upperback thorax
    thorax lowerneck lclavicle rclavicle
    lowerneck upperneck
    upperneck head
    lclavicle lhumerus
    lhumerus lradius
    lradius lwrist
    lwrist lhand lthumb
    lhand lfingers
    rclavicle rhumerus
    rhumerus rradius
    rradius rwrist
    rwrist rhand rthumb
    rhand rfingers
  end

#!OML:ASF G:\ViconDB\ViconDB\414\test\team2\shane.ASF
:FULLY-SPECIFIED
:DEGREES
1
root 3.5357 11.5495 -21.1014 26.0959 -1.89839 1.86246
lowerback 55.1708 -7.1563 -22.0186
upperback -14.1308 -42.6303 -11.6493
thorax -58.9582 2.6658 29.0217
lowerneck 62.6172 -29.3049 60.737
upperneck -12.8464 7.86138 -19.007
head -7.88676 3.85916 -15.5111
rclavicle -1.74931e-014 2.8625e-014
rhumerus -165.999 -5.82101 162.127
rradius 52.9626
rwrist -41.595
rhand -23.6303 -21.9211
rfingers 7.12502
rthumb 2.8344 -51.8821
lclavicle -1.74931e-014 2.8625e-014
lhumerus -170.411 16.6515 102.618
lradius 44.6359
lwrist 71.4644
lhand -43.5961 26.9596
lfingers 7.12502
lthumb -16.4324 56.2836
rfemur -98.7196 -32.5004 35.0834
rtibia 112.582
rfoot -39.2079 1.16207
rtoes -14.0313
lfemur -92.3963 27.7648 -29.5183
ltibia 108.882
lfoot -47.5789 -9.33328
ltoes -9.13914
2
root 3.55188 11.405 -21.0295 25.3389 -2.24324 1.62074
lowerback 55.9558 -6.88773 -22.4644
upperback -14.1141 -43.205 -11.7791
thorax -59.1814 2.96802 29.5087
lowerneck 62.9019 -29.5982 61.0745
upperneck -12.9459 8.0315 -18.9934
head -7.88199 3.89966 -15.5277
rclavicle -3.97569e-014 -3.81667e-014
rhumerus -163.405 -4.76984 161.508
rradius 52.6328
rwrist -43.6455
rhand -23.9674 -21.8122
rfingers 7.12502
rthumb 2.50887 -51.7772
lclavicle -3.97569e-014 -3.81667e-014
lhumerus -169.351 14.7316 103.002
lradius 44.7561
lwrist 70.894
lhand -44.1242 26.0824
lfingers 7.12502
lthumb -16.9408 55.3636
rfemur -98.3146 -32.8705 34.7496
rtibia 114.151
rfoot -39.9984 1.21703
rtoes -14.3178
lfemur -91.9093 28.6593 -29.0527
ltibia 110.539
lfoot -48.9833 -8.93477
ltoes -9.72986
3
root 3.54663 11.2486 -21.0015 25.6572 -1.89495 1.63968
lowerback 55.8362 -7.37818 -22.3852
upperback -14.1064 -44.1753 -11.9453
thorax -59.2207 2.9327 30.0719
lowerneck 63.3076 -29.895 61.4644
upperneck -13.1726 8.32526 -19.1128
head -7.88955 3.99462 -15.6342
rclavicle -7.79236e-014 1.08139e-013
rhumerus -160.703 -4.65427 159.537
rradius 52.4331
rwrist -44.7462
rhand -25.0496 -22.4586
rfingers 7.12502
rthumb 1.4637 -52.4333
lclavicle -7.79236e-014 1.08139e-013
lhumerus -168.177 12.8497 103.457
lradius 44.8107
lwrist 69.5748
lhand -44.1434 24.9696
lfingers 7.12502
lthumb -16.9593 54.2492
rfemur -99.8583 -32.9822 35.3159
rtibia 115.645
rfoot -40.1476 -0.0589308
rtoes -15.3357
lfemur -93.2367 28.4556 -29.0715
ltibia 111.915
lfoot -49.2373 -8.47052
ltoes -10.4931
4
root 3.53676 11.125 -20.9741 25.899 -1.42178 1.59591
lowerback 55.8157 -7.88247 -22.3059
upperback -14.1246 -45.0871 -12.0518
thorax -59.0531 2.83501 30.6093
lowerneck 63.4312 -30.0171 62.0685
upperneck -13.4138 8.83179 -19.0964
head -7.84364 4.13525 -15.6783
rclavicle -6.36111e-014 -3.49861e-014
rhumerus -157.359 -3.60856 157.353
rradius 51.9901
rwrist -47.4094
rhand -25.6743 -23.1867
rfingers 7.12502
rthumb 0.86035 -53.1647
lclavicle -6.36111e-014 -3.49861e-014
lhumerus -166.634 10.7216 104.216
lradius 44.7543
lwrist 68.7373
lhand -44.7724 24.1179
lfingers 7.12502
lthumb -17.5646 53.3444
rfemur -100.795 -33.086 35.7006
rtibia 116.975
rfoot -40.5883 -1.00303
rtoes -15.6452
lfemur -94.1169 28.1675 -28.7235
ltibia 113.176
lfoot -49.6415 -8.07763
ltoes -11.1949
5
root 3.60345 11.1714 -20.8364 22.4192 -2.56396 0.749428
lowerback 59.4545 -6.28611 -23.5955
upperback -13.9495 -45.7176 -12.1385
thorax -59.8876 4.11682 31.6572
lowerneck 63.3 -30.4593 63.0186
upperneck -13.5525 9.08032 -18.9845
head -7.82104 4.14679 -15.6514
rclavicle -4.92986e-014 2.22639e-014
rhumerus -157.359 -3.60856 157.353
rradius 51.9901
rwrist -47.4094
rhand -25.6743 -23.1867
rfingers 7.12502
rthumb 0.86035 -53.1647
lclavicle -4.92986e-014 2.22639e-014
lhumerus -165.568 8.13253 105.091
lradius 45.1222
lwrist 67.6746
lhand -45.3081 24.1194
lfingers 7.12502
lthumb -18.0801 53.2991
rfemur -94.1947 -34.0156 33.207
rtibia 117.439
rfoot -42.9461 -0.792217
rtoes -15.8036
lfemur -87.9686 31.1114 -26.0662
ltibia 113.846
lfoot -52.4161 -8.1508
ltoes -11.8337
6
root 3.55838 10.9793 -20.8404 25.0624 -1.64062 1.01819
lowerback 56.1367 -8.12511 -22.5726
upperback -13.9861 -46.5507 -12.5888
thorax -59.4754 2.9404 31.2115
lowerneck 63.3954 -30.8275 63.8479
upperneck -13.6959 9.51177 -18.7703
head -7.77065 4.21692 -15.5712
rclavicle 1.55847e-013 1.78111e-013
rhumerus -149.133 -2.99316 149.025
rradius 50.7824
rwrist -51.8723
rhand -28.1912 -25.4343
rfingers 7.12502
rthumb -1.57055 -55.4083
lclavicle 1.55847e-013 1.78111e-013
lhumerus -164.151 5.53428 105.813
lradius 45.0364
lwrist 66.8521
lhand -45.6395 23.8811
lfingers 7.12502
lthumb -18.3989 53.031
rfemur -99.6405 -33.0519 35.1676
rtibia 118.769
rfoot -41.5167 -2.39298
rtoes -16.0826
lfemur -93.0566 29.0049 -27.2446
ltibia 115.068
lfoot -50.9596 -7.39117
ltoes -12.3243
7
root 3.59126 10.962 -20.7407 23.9545 -2.18138 0.531009
lowerback 56.6831 -7.88226 -22.8962
upperback -13.8678 -47.0871 -12.8735
thorax -59.9118 3.19929 31.4633
lowerneck 63.2256 -31.3497 64.8781
upperneck -13.871 9.69267 -18.7657
head -7.77468 4.20724 -15.5991
rclavicle -8.26944e-014 8.26944e-014
rhumerus -144.481 -1.86464 144.085
rradius 49.9614
rwrist -54.834
rhand -29.3338 -26.8146
rfingers 7.12502
rthumb -2.6741 -56.7776
lclavicle -8.26944e-014 8.26944e-014
lhumerus -162.95 2.57892 106.784
lradius 45.2143
lwrist 65.9525
lhand -46.6814 24.0391
lfingers 7.12502
lthumb -19.4009 53.0912
rfemur -97.5348 -33.1578 34.2818
rtibia 119.147
rfoot -42.0221 -2.52761
rtoes -16.18
lfemur -90.9275 29.7224 -25.9915
ltibia 115.664
lfoot -51.9964 -6.44171
ltoes -13.0334
8
root 3.61292 10.9552 -20.6482 23.1389 -2.33864 0.17916
lowerback 57.0021 -7.92114 -22.9509
upperback -13.7127 -47.6538 -13.1531
thorax -60.2571 3.31378 31.6651
lowerneck 62.5178 -31.5664 66.0738
upperneck -13.6388 9.94447 -18.5327
head -7.56651 4.26382 -15.4819
rclavicle -4.13472e-014 2.8625e-014
rhumerus -139.83 -0.190351 138.909
rradius 48.876
rwrist -57.7826
rhand -30.6124 -28.2885
rfingers 7.12502
rthumb -3.90887 -58.2324
lclavicle -4.13472e-014 2.8625e-014
lhumerus -161.645 -0.30567 108.025
lradius 45.3287
lwrist 64.0059
lhand -46.8341 23.9409
lfingers 7.12502
lthumb -19.5478 52.9782
rfemur -95.8404 -33.3491 33.6203
rtibia 119.479
rfoot -42.464 -3.1508
rtoes -16.8938
lfemur -89.2412 30.1621 -24.9955
ltibia 116.16
lfoot -52.7765 -5.81412
ltoes -13.3988
9
root 3.63058 10.9921 -20.5665 22.2359 -2.37198 -0.17033
lowerback 57.4669 -8.08774 -22.8682
upperback -13.469 -48.4435 -13.4705
thorax -60.7441 3.514 32.0724
lowerneck 62.0936 -31.9027 67.222
upperneck -13.6514 10.2421 -18.4227
head -7.46243 4.31463 -15.4446
rclavicle 6.04305e-014 -5.08889e-014
rhumerus -135.616 1.84714 133.1
rradius 47.6803
rwrist -61.0674
rhand -31.8443 -29.4535
rfingers 7.12502
rthumb -5.09835 -59.3722
lclavicle 6.04305e-014 -5.08889e-014
lhumerus -160.28 -3.11348 109.554
lradius 45.0953
lwrist 62.2251
lhand -48.338 23.6992
lfingers 7.12502
lthumb -20.9932 52.583
rfemur -93.8252 -33.5478 32.8677
rtibia 119.437
rfoot -42.66 -3.27619
rtoes -17.1901
lfemur -87.3001 30.1988 -23.8868
ltibia 116.233
lfoot -53.1879 -4.5598
ltoes -14.3022
10
root 3.62837 11.0354 -20.5251 21.854 -1.65837 -0.0334559
lowerback 57.7638 -8.62325 -22.5514
upperback -13.2449 -49.3962 -13.7224
thorax -60.939 3.55187 32.6024
lowerneck 61.3627 -31.9988 68.3085
upperneck -13.6602 10.5173 -18.2637
head -7.36508 4.34654 -15.3766
rclavicle -1.04958e-013 -1.39944e-013
rhumerus -132.134 5.0734 128.48
rradius 46.6095
rwrist -63.6085
rhand -32.3806 -32.3144
rfingers 7.12502
rthumb -5.61617 -62.2199
lclavicle -1.04958e-013 -1.39944e-013
lhumerus -158.555 -6.96449 110.921
lradius 44.9998
lwrist 59.8645
lhand -49.083 23.5881
lfingers 7.12502
lthumb -21.7087 52.3909
rfemur -92.8843 -34.0782 32.4523
rtibia 119.309
rfoot -42.5003 -4.03855
rtoes -17.4513
lfemur -86.1726 29.048 -23.0561
ltibia 116.069
lfoot -52.9566 -3.75916
ltoes -15.1745
11
root 3.65654 11.0978 -20.4536 21.2058 -1.75398 -0.421855
lowerback 57.6269 -8.8641 -22.242
upperback -13.031 -49.6606 -13.9115
thorax -61.3918 3.62703 32.6996
lowerneck 60.755 -31.9902 69.1957
upperneck -13.4751 10.8749 -17.8199
head -7.19459 4.40872 -15.1384
rclavicle -3.18055e-015 6.04305e-014
rhumerus -128.866 9.20749 125.134
rradius 45.3395
rwrist -66.3468
rhand -33.0318 -34.3849
rfingers 7.12502
rthumb -6.24491 -64.2728
lclavicle -3.18055e-015 6.04305e-014
lhumerus -156.653 -11.7471 111.5
lradius 44.6293
lwrist 57.7993
lhand -49.6044 22.7212
lfingers 7.12502
lthumb -22.2094 51.4652
rfemur -91.1486 -34.0203 31.8166
rtibia 118.894
rfoot -42.2936 -4.32977
rtoes -17.7472
lfemur -84.4895 28.8723 -22.0116
ltibia 115.759
lfoot -52.9832 -2.86179
ltoes -15.8537
